<svg width="384" height="174" viewBox="0 0 384 174" fill="none" xmlns="http://www.w3.org/2000/svg">
<g filter="url(#filter0_ddii_110_224)">
<g clip-path="url(#clip0_110_224)">
<rect x="15" y="16" width="360" height="150" rx="75" fill="#1D89B7"/>
<circle cx="87" cy="91" r="99" fill="white" fill-opacity="0.1"/>
<circle cx="87" cy="91" r="143" fill="white" fill-opacity="0.1"/>
<circle cx="87" cy="91" r="189" fill="white" fill-opacity="0.1"/>
<path fill-rule="evenodd" clip-rule="evenodd" d="M290.5 96C292.477 96 294.427 96.1183 296.343 96.3483C299.246 90.7036 303.224 85.7024 308.007 81.615C308.48 49.7144 334.487 24 366.5 24C398.809 24 425 50.1913 425 82.5C425 108.811 407.631 131.064 383.733 138.42C376.133 155.271 359.186 167 339.5 167C337.523 167 335.573 166.882 333.657 166.652C325.61 182.298 309.305 193 290.5 193C284.386 193 278.537 191.869 273.149 189.804C264.292 201.468 250.276 209 234.5 209C227.745 209 221.312 207.619 215.469 205.124C207.78 208.887 199.137 211 190 211C173.235 211 158.132 203.887 147.543 192.515C139.644 204.267 126.225 212 111 212C92.2698 212 76.2731 200.297 69.9235 183.804C62.4821 189.569 53.1417 193 43 193C18.6995 193 -1 173.301 -1 149C-1 124.699 18.6995 105 43 105C55.784 105 67.2945 110.452 75.3335 119.158C80.4404 97.8433 99.62 82 122.5 82C138.741 82 153.117 89.9827 161.92 102.239C170.24 97.6262 179.813 95 190 95C206.081 95 220.633 101.544 231.139 112.115C232.249 112.039 233.37 112 234.5 112C240.614 112 246.463 113.131 251.851 115.196C260.708 103.532 274.724 96 290.5 96Z" fill="#D9D9D9" fill-opacity="0.6"/>
<path fill-rule="evenodd" clip-rule="evenodd" d="M384.977 163.998C420.932 163.742 450 134.515 450 98.5C450 62.3253 420.675 33 384.5 33C348.325 33 319 62.3253 319 98.5C319 105.7 320.162 112.629 322.308 119.109C314.503 121.494 307.533 125.795 301.949 131.464C296.073 128.604 289.474 127 282.5 127C277.824 127 273.316 127.721 269.081 129.059C260.529 122.737 249.951 119 238.5 119C221.445 119 206.326 127.291 196.954 140.062C193.578 139.366 190.082 139 186.5 139C181.79 139 177.229 139.632 172.895 140.816C165.165 134.08 155.059 130 144 130C133.339 130 123.564 133.791 115.949 140.1C108.108 128.003 94.4887 120 79 120C63.3847 120 49.6692 128.134 41.8599 140.397C35.1976 136.338 27.3719 134 19 134C-5.30053 134 -25 153.699 -25 178C-25 202.301 -5.30053 222 19 222C34.6153 222 48.3308 213.866 56.1401 201.603C62.8024 205.662 70.6281 208 79 208C89.6608 208 99.4361 204.209 107.051 197.9C114.713 209.721 127.892 217.632 142.941 217.988C152.066 232.418 168.164 242 186.5 242C203.555 242 218.674 233.709 228.046 220.938C231.422 221.634 234.918 222 238.5 222C249.112 222 258.974 218.79 267.169 213.289C271.949 215.043 277.113 216 282.5 216C292.995 216 302.642 212.367 310.25 206.289C317.817 211.169 326.828 214 336.5 214C363.286 214 385 192.286 385 165.5C385 164.998 384.992 164.497 384.977 163.998Z" fill="#EFFBFF"/>
<g filter="url(#filter1_d_110_224)">
<g clip-path="url(#clip1_110_224)">
<g filter="url(#filter2_ii_110_224)">
<circle cx="90" cy="91" r="60" fill="#FFDE30"/>
</g>
</g>
</g>
</g>
</g>
<defs>
<filter id="filter0_ddii_110_224" x="0" y="0" width="384" height="174" filterUnits="userSpaceOnUse" color-interpolation-filters="sRGB">
<feFlood flood-opacity="0" result="BackgroundImageFix"/>
<feColorMatrix in="SourceAlpha" type="matrix" values="0 0 0 0 0 0 0 0 0 0 0 0 0 0 0 0 0 0 127 0" result="hardAlpha"/>
<feOffset dy="4"/>
<feGaussianBlur stdDeviation="2"/>
<feComposite in2="hardAlpha" operator="out"/>
<feColorMatrix type="matrix" values="0 0 0 0 1 0 0 0 0 1 0 0 0 0 1 0 0 0 0.92 0"/>
<feBlend mode="normal" in2="BackgroundImageFix" result="effect1_dropShadow_110_224"/>
<feColorMatrix in="SourceAlpha" type="matrix" values="0 0 0 0 0 0 0 0 0 0 0 0 0 0 0 0 0 0 127 0" result="hardAlpha"/>
<feOffset dx="-3" dy="-4"/>
<feGaussianBlur stdDeviation="6"/>
<feComposite in2="hardAlpha" operator="out"/>
<feColorMatrix type="matrix" values="0 0 0 0 0 0 0 0 0 0 0 0 0 0 0 0 0 0 0.25 0"/>
<feBlend mode="normal" in2="effect1_dropShadow_110_224" result="effect2_dropShadow_110_224"/>
<feBlend mode="normal" in="SourceGraphic" in2="effect2_dropShadow_110_224" result="shape"/>
<feColorMatrix in="SourceAlpha" type="matrix" values="0 0 0 0 0 0 0 0 0 0 0 0 0 0 0 0 0 0 127 0" result="hardAlpha"/>
<feOffset dy="7"/>
<feGaussianBlur stdDeviation="4.5"/>
<feComposite in2="hardAlpha" operator="arithmetic" k2="-1" k3="1"/>
<feColorMatrix type="matrix" values="0 0 0 0 0 0 0 0 0 0 0 0 0 0 0 0 0 0 0.25 0"/>
<feBlend mode="normal" in2="shape" result="effect3_innerShadow_110_224"/>
<feColorMatrix in="SourceAlpha" type="matrix" values="0 0 0 0 0 0 0 0 0 0 0 0 0 0 0 0 0 0 127 0" result="hardAlpha"/>
<feOffset dy="-1"/>
<feGaussianBlur stdDeviation="6"/>
<feComposite in2="hardAlpha" operator="arithmetic" k2="-1" k3="1"/>
<feColorMatrix type="matrix" values="0 0 0 0 0 0 0 0 0 0 0 0 0 0 0 0 0 0 0.25 0"/>
<feBlend mode="normal" in2="effect3_innerShadow_110_224" result="effect4_innerShadow_110_224"/>
</filter>
<filter id="filter1_d_110_224" x="26" y="30" width="136" height="136" filterUnits="userSpaceOnUse" color-interpolation-filters="sRGB">
<feFlood flood-opacity="0" result="BackgroundImageFix"/>
<feColorMatrix in="SourceAlpha" type="matrix" values="0 0 0 0 0 0 0 0 0 0 0 0 0 0 0 0 0 0 127 0" result="hardAlpha"/>
<feOffset dx="4" dy="7"/>
<feGaussianBlur stdDeviation="4"/>
<feComposite in2="hardAlpha" operator="out"/>
<feColorMatrix type="matrix" values="0 0 0 0 0 0 0 0 0 0 0 0 0 0 0 0 0 0 0.25 0"/>
<feBlend mode="normal" in2="BackgroundImageFix" result="effect1_dropShadow_110_224"/>
<feBlend mode="normal" in="SourceGraphic" in2="effect1_dropShadow_110_224" result="shape"/>
</filter>
<filter id="filter2_ii_110_224" x="30" y="27" width="123" height="128" filterUnits="userSpaceOnUse" color-interpolation-filters="sRGB">
<feFlood flood-opacity="0" result="BackgroundImageFix"/>
<feBlend mode="normal" in="SourceGraphic" in2="BackgroundImageFix" result="shape"/>
<feColorMatrix in="SourceAlpha" type="matrix" values="0 0 0 0 0 0 0 0 0 0 0 0 0 0 0 0 0 0 127 0" result="hardAlpha"/>
<feOffset dx="3" dy="4"/>
<feGaussianBlur stdDeviation="2"/>
<feComposite in2="hardAlpha" operator="arithmetic" k2="-1" k3="1"/>
<feColorMatrix type="matrix" values="0 0 0 0 1 0 0 0 0 0.96878 0 0 0 0 0.804167 0 0 0 0.85 0"/>
<feBlend mode="normal" in2="shape" result="effect1_innerShadow_110_224"/>
<feColorMatrix in="SourceAlpha" type="matrix" values="0 0 0 0 0 0 0 0 0 0 0 0 0 0 0 0 0 0 127 0" result="hardAlpha"/>
<feOffset dy="-4"/>
<feGaussianBlur stdDeviation="2"/>
<feComposite in2="hardAlpha" operator="arithmetic" k2="-1" k3="1"/>
<feColorMatrix type="matrix" values="0 0 0 0 0.5875 0 0 0 0 0.507596 0 0 0 0 0.088125 0 0 0 0.7 0"/>
<feBlend mode="normal" in2="effect1_innerShadow_110_224" result="effect2_innerShadow_110_224"/>
</filter>
<clipPath id="clip0_110_224">
<rect x="15" y="16" width="360" height="150" rx="75" fill="white"/>
</clipPath>
<clipPath id="clip1_110_224">
<rect x="30" y="31" width="120" height="120" rx="60" fill="white"/>
</clipPath>
</defs>
</svg>
